<svg width="1089" height="365" viewBox="0 0 1089 365" fill="none" xmlns="http://www.w3.org/2000/svg">
<ellipse cx="186.674" cy="182.5" rx="186.674" ry="182.5" fill="white"/>
<path d="M113.095 218H75.7191V196.368H113.095C118.215 196.368 122.268 195.941 125.255 195.088C128.242 194.235 130.375 192.315 131.655 189.328C132.935 186.256 133.575 181.52 133.575 175.12C133.575 168.635 132.935 163.899 131.655 160.912C130.375 157.925 128.242 156.005 125.255 155.152C122.268 154.299 118.215 153.872 113.095 153.872H75.7191V132.24H113.095C122.567 132.24 130.759 133.947 137.671 137.36C144.583 140.688 149.916 145.552 153.671 151.952C157.426 158.352 159.303 166.075 159.303 175.12C159.303 184.165 157.426 191.888 153.671 198.288C149.916 204.688 144.583 209.595 137.671 213.008C130.759 216.336 122.567 218 113.095 218ZM93.7671 218H69.7031V132.24H93.7671V218Z" fill="black"/>
<path d="M268.54 218H231.164V196.368H268.54C273.66 196.368 277.714 195.941 280.7 195.088C283.687 194.235 285.82 192.315 287.1 189.328C288.38 186.256 289.02 181.52 289.02 175.12C289.02 168.635 288.38 163.899 287.1 160.912C285.82 157.925 283.687 156.005 280.7 155.152C277.714 154.299 273.66 153.872 268.54 153.872H231.164V132.24H268.54C278.012 132.24 286.204 133.947 293.116 137.36C300.028 140.688 305.362 145.552 309.116 151.952C312.871 158.352 314.748 166.075 314.748 175.12C314.748 184.165 312.871 191.888 309.116 198.288C305.362 204.688 300.028 209.595 293.116 213.008C286.204 216.336 278.012 218 268.54 218ZM249.212 218H225.148V132.24H249.212V218Z" fill="black"/>
<path d="M208.995 235.024H162.915V218H208.995V235.024Z" fill="black"/>
<path d="M442.009 218H415.001L451.993 132.24H486.425L523.545 218H495.897L475.545 168.464L469.913 154H468.249L462.745 168.464L442.009 218ZM500.121 202.128H436.889V180.496H500.121V202.128ZM562.345 219.28C554.751 219.28 548.137 217.957 542.505 215.312C536.873 212.581 532.521 208.699 529.449 203.664C526.377 198.629 524.841 192.656 524.841 185.744C524.841 178.747 526.377 172.773 529.449 167.824C532.521 162.789 536.873 158.949 542.505 156.304C548.137 153.573 554.751 152.208 562.345 152.208C569.684 152.208 576.041 153.403 581.417 155.792C586.879 158.096 591.06 161.381 593.961 165.648C596.948 169.915 598.441 174.949 598.441 180.752V182.8H574.505V181.776C574.505 178.448 573.353 176.272 571.049 175.248C568.831 174.224 565.759 173.712 561.833 173.712C557.396 173.712 554.111 174.48 551.977 176.016C549.844 177.467 548.777 180.709 548.777 185.744C548.777 190.693 549.844 193.936 551.977 195.472C554.111 196.923 557.396 197.648 561.833 197.648C565.759 197.648 568.831 197.179 571.049 196.24C573.353 195.216 574.505 193.04 574.505 189.712V188.56H598.441V190.736C598.441 196.453 596.948 201.445 593.961 205.712C591.06 209.979 586.879 213.307 581.417 215.696C576.041 218.085 569.684 219.28 562.345 219.28ZM673.863 218H651.335V203.664H650.055V180.752C650.055 177.509 649.202 175.461 647.495 174.608C645.874 173.669 642.93 173.2 638.663 173.2C634.738 173.2 632.007 173.669 630.471 174.608C629.021 175.547 628.295 177.381 628.295 180.112V180.624H604.231V180.368C604.231 174.651 605.725 169.701 608.711 165.52C611.698 161.253 615.922 157.968 621.383 155.664C626.845 153.36 633.202 152.208 640.455 152.208C647.965 152.208 654.194 153.403 659.143 155.792C664.093 158.096 667.762 161.424 670.151 165.776C672.626 170.043 673.863 175.205 673.863 181.264V218ZM625.735 219.28C618.482 219.28 612.85 217.701 608.839 214.544C604.914 211.387 602.951 207.077 602.951 201.616C602.951 198.544 603.677 195.813 605.127 193.424C606.578 191.035 608.839 189.115 611.911 187.664C614.983 186.128 618.951 185.104 623.815 184.592L651.335 181.904V195.216L630.215 197.648C629.106 197.733 628.295 197.989 627.783 198.416C627.357 198.843 627.143 199.397 627.143 200.08C627.143 201.104 627.613 201.787 628.551 202.128C629.575 202.384 631.026 202.512 632.903 202.512C637.17 202.512 640.541 202.299 643.015 201.872C645.49 201.36 647.282 200.464 648.391 199.184C649.501 197.904 650.055 196.069 650.055 193.68L651.847 193.168V204.432H650.055C648.861 208.955 646.258 212.581 642.247 215.312C638.237 217.957 632.733 219.28 625.735 219.28ZM710.308 219.28C703.738 219.28 698.148 217.957 693.54 215.312C689.018 212.581 685.562 208.699 683.172 203.664C680.868 198.629 679.716 192.656 679.716 185.744C679.716 178.747 680.868 172.773 683.172 167.824C685.476 162.789 688.804 158.949 693.156 156.304C697.594 153.573 702.97 152.208 709.284 152.208C716.879 152.208 722.596 153.872 726.436 157.2C730.276 160.443 732.666 164.752 733.604 170.128H737.316V184.976H734.884C734.884 180.453 733.562 177.509 730.916 176.144C728.356 174.779 724.388 174.096 719.012 174.096C715.343 174.096 712.399 174.48 710.18 175.248C707.962 176.016 706.383 177.253 705.444 178.96C704.506 180.581 704.036 182.843 704.036 185.744C704.036 188.56 704.506 190.821 705.444 192.528C706.383 194.235 707.962 195.472 710.18 196.24C712.399 196.923 715.343 197.264 719.012 197.264C722.596 197.264 725.54 196.965 727.844 196.368C730.234 195.771 731.983 194.661 733.092 193.04C734.287 191.333 734.884 188.944 734.884 185.872H737.316L739.108 200.592H735.14C734.116 206.992 731.599 211.728 727.588 214.8C723.663 217.787 717.903 219.28 710.308 219.28ZM758.948 218H736.42V199.824L734.884 198.16V132.24H758.948V218ZM802.589 219.28C795.336 219.28 788.893 218.171 783.261 215.952C777.629 213.733 773.235 210.149 770.077 205.2C766.92 200.251 765.341 193.765 765.341 185.744C765.341 178.747 766.92 172.773 770.077 167.824C773.235 162.789 777.544 158.949 783.005 156.304C788.552 153.573 794.909 152.208 802.077 152.208C809.501 152.208 815.944 153.445 821.405 155.92C826.867 158.309 831.091 161.893 834.077 166.672C837.064 171.365 838.557 177.168 838.557 184.08C838.557 185.189 838.515 186.213 838.429 187.152C838.429 188.005 838.344 189.029 838.173 190.224H781.085V178.064H820.765L815.517 185.616C815.517 184.848 815.517 184.123 815.517 183.44C815.517 182.672 815.517 181.904 815.517 181.136C815.517 177.211 814.493 174.48 812.445 172.944C810.483 171.408 806.856 170.64 801.565 170.64C796.104 170.64 792.392 171.493 790.429 173.2C788.552 174.907 787.613 177.979 787.613 182.416V188.56C787.613 193.083 788.595 196.155 790.557 197.776C792.52 199.397 796.232 200.208 801.693 200.208C806.557 200.208 809.8 199.781 811.421 198.928C813.128 197.989 813.981 196.581 813.981 194.704V193.296H838.045V194.832C838.045 199.611 836.595 203.835 833.693 207.504C830.792 211.173 826.696 214.075 821.405 216.208C816.115 218.256 809.843 219.28 802.589 219.28ZM966.084 218H942.02V185.488C942.02 180.965 941.167 177.893 939.46 176.272C937.839 174.565 934.511 173.712 929.476 173.712C924.527 173.712 921.284 174.523 919.748 176.144C918.298 177.68 917.572 180.539 917.572 184.72H915.14L913.092 173.072H917.444C917.956 169.488 919.023 166.117 920.644 162.96C922.351 159.803 924.911 157.243 928.324 155.28C931.738 153.232 936.218 152.208 941.764 152.208C947.311 152.208 951.876 153.275 955.46 155.408C959.044 157.541 961.69 160.443 963.396 164.112C965.188 167.781 966.084 171.963 966.084 176.656V218ZM869.06 218H844.996V153.488H867.524V173.328L869.06 173.968V218ZM917.572 218H893.508V185.488C893.508 180.965 892.655 177.893 890.948 176.272C889.327 174.565 885.999 173.712 880.964 173.712C876.015 173.712 872.772 174.523 871.236 176.144C869.786 177.68 869.06 180.539 869.06 184.72H866.628L864.58 173.072H868.804C869.316 169.488 870.383 166.117 872.004 162.96C873.626 159.803 876.058 157.243 879.3 155.28C882.628 153.232 886.98 152.208 892.356 152.208C897.988 152.208 902.554 153.317 906.052 155.536C909.551 157.755 912.111 160.741 913.732 164.496C915.439 168.165 916.292 172.219 916.292 176.656H917.572V218ZM987.454 239.76H975.806V218H994.494C996.457 218 997.95 217.744 998.974 217.232C999.998 216.72 1000.77 215.824 1001.28 214.544L1003.07 210.192L1000.77 220.944L968.126 153.488H995.518L1006.65 178.832L1011.26 193.68H1012.93L1017.15 178.576L1026.75 153.488H1053.63L1023.04 220.56C1020.73 225.595 1018 229.52 1014.85 232.336C1011.77 235.152 1008.02 237.072 1003.58 238.096C999.145 239.205 993.769 239.76 987.454 239.76Z" fill="white"/>
</svg>
