<svg viewBox="0 0 2560 512" xmlns="http://www.w3.org/2000/svg"><title>Turbo Monorepo</title><path d="M365.04 286.04c4.08 0 6.12 5.52 6.12 16.56 0 6-2.52 13.32-7.56 21.96-5.04 8.4-11.64 16.2-19.8 23.4-7.92 6.96-16.8 12.72-26.64 17.28-9.84 4.56-20.28 6.84-31.32 6.84-10.8 0-19.32-3.48-25.56-10.44-6-7.2-9-15.12-9-23.76 0-8.88 1.44-18.84 4.32-29.88 2.88-11.04 6-22.56 9.36-34.56 9.12-31.92 13.8-54.36 14.04-67.32 0-5.52-.72-9.72-2.16-12.6-1.44-3.12-4.2-4.68-8.28-4.68-7.2 0-14.88 4.32-23.04 12.96-8.16 8.64-15.84 19.68-23.04 33.12-16.56 30.72-25.32 60.72-26.28 90l1.44 10.08c.48 3.36.72 6.96.72 10.8 0 7.68-3.84 14.76-11.52 21.24-7.44 6.24-15.84 9.36-25.2 9.36-5.52 0-9.6-2.64-12.24-7.92-2.64-5.52-3.96-12.24-3.96-20.16s1.8-18.72 5.4-32.4c3.6-13.68 7.56-28.2 11.88-43.56 11.52-40.56 17.4-70.8 17.64-90.72 0-10.08-1.32-18-3.96-23.76-2.4-5.76-7.2-8.64-14.4-8.64-12.96 0-25.8 9.24-38.52 27.72-12.72 18.48-24.12 47.16-34.2 86.04-2.64 10.08-4.68 18.84-6.12 26.28l-.36 6.84c4.56 22.08 6.84 36.48 6.84 43.2 0 13.92-4.92 23.28-14.76 28.08-4.56 2.16-9 4.2-13.32 6.12-4.08 1.92-8.52 2.88-13.32 2.88-12 0-18-11.4-18-34.2 0-23.04 6.36-67.92 19.08-134.64 4.56-24 6.84-37.44 6.84-40.32 0-19.44-4.92-29.16-14.76-29.16-3.36 0-6.48.96-9.36 2.88-2.64 1.92-5.4 3.96-8.28 6.12-2.64 2.16-5.4 4.2-8.28 6.12-2.88 1.92-6.24 2.88-10.08 2.88-3.6 0-5.4-3.24-5.4-9.72 0-13.2 6.12-24 18.36-32.4C30.12 105.32 44.4 101 61.2 101c21.6 0 34.32 10.08 38.16 30.24.96 6 1.68 12.36 2.16 19.08 17.76-33.36 40.2-50.04 67.32-50.04 29.52 0 46.44 14.16 50.76 42.48 1.44 8.16 2.04 16.92 1.8 26.28v2.88c15.6-21.6 34.08-32.4 55.44-32.4 30.24 0 45.36 18.24 45.36 54.72 0 15.84-2.52 34.44-7.56 55.8-4.8 21.12-8.4 36.36-10.8 45.72-2.16 9.12-3.24 16.2-3.24 21.24 0 9.12 3.12 13.68 9.36 13.68 6.48 0 21.72-12.48 45.72-37.44 4.32-4.8 7.44-7.2 9.36-7.2Zm85.022 58.68c-12 16.56-28.08 24.84-48.24 24.84-16.32 0-29.4-3.36-39.24-10.08-9.6-6.96-14.4-17.88-14.4-32.76 0-6.24.84-12 2.52-17.28 1.92-5.28 4.92-11.76 9-19.44l10.44-85.32c7.44-5.76 17.52-8.64 30.24-8.64 10.8 0 16.92 7.2 18.36 21.6.48 4.32.72 9.48.72 15.48 0 5.76-.96 11.88-2.88 18.36-9.6 33.12-14.28 55.32-14.04 66.6 0 8.64 5.04 12.96 15.12 12.96 10.08 0 17.52-3.24 22.32-9.72 4.8-6.48 8.88-14.52 12.24-24.12 6.24-26.64 12-48.6 17.28-65.88 5.52-17.28 9-27.6 10.44-30.96 2.4-5.76 6.96-8.76 13.68-9 6.72.24 13.08 5.04 19.08 14.4 6 9.12 9 16.2 9 21.24-.48 16.8-10.92 59.16-31.32 127.08 15.6-12.24 31.08-27.24 46.44-45 5.28-6.24 9.72-11.4 13.32-15.48 3.6-4.32 6.48-6.48 8.64-6.48 3.36 0 5.04 3.84 5.04 11.52 0 15.12-8.52 32.76-25.56 52.92-16.8 20.16-37.44 35.88-61.92 47.16-2.88 9.6-6 18.72-9.36 27.36-3.36 8.64-7.68 16.2-12.96 22.68-11.52 13.92-29.04 20.88-52.56 20.88-15.84 0-29.4-4.56-40.68-13.68-11.04-9.12-16.56-20.52-16.56-34.2 0-7.68 2.52-13.8 7.56-18.36 5.28-4.56 12.36-8.4 21.24-11.52 9.12-2.88 19.68-5.52 31.68-7.92 12-2.16 24.84-4.92 38.52-8.28 3.36-14.4 5.64-24.72 6.84-30.96Zm-48.96 97.2c11.28 0 21.48-9.84 30.6-29.52-8.64 1.68-16.32 2.88-23.04 3.6-6.72.96-12.48 1.8-17.28 2.52-9.6 1.44-14.28 3.96-14.04 7.56 0 4.56 2.64 8.4 7.92 11.52 5.52 3.12 10.8 4.56 15.84 4.32ZM691.318 340.4c-18.96 22.32-41.76 33.48-68.4 33.48-26.4 0-46.2-6.72-59.4-20.16-13.2-13.68-19.68-30.6-19.44-50.76-.24-28.56 8.76-53.16 27-73.8 18.24-20.64 42.12-30.96 71.64-30.96 13.44 0 24.24 1.68 32.4 5.04 14.16 5.76 21.24 11.16 21.24 16.2 0 3.84-9.96 5.88-29.88 6.12-19.68 0-36.24 6.84-49.68 20.52-13.2 13.44-19.8 30.48-19.8 51.12 0 10.8 3.12 19.92 9.36 27.36 6.48 7.2 15.48 10.8 27 10.8 11.76 0 21.48-2.4 29.16-7.2-17.04-11.52-25.56-28.2-25.56-50.04-.24-11.52 3.84-21.96 12.24-31.32 8.64-9.6 19.56-14.4 32.76-14.4 13.44-.24 23.04 3.36 28.8 10.8 5.76 7.44 8.64 17.04 8.64 28.8 0 11.52-2.76 23.76-8.28 36.72h2.16c10.56-.24 19.68-3.96 27.36-11.16 2.88-2.88 5.28-5.4 7.2-7.56 2.16-2.16 4.32-3.24 6.48-3.24 3.36 0 5.04 3.96 5.04 11.88 0 14.64-4.32 25.68-12.96 33.12-8.64 7.2-18.24 10.8-28.8 10.8-10.32 0-19.08-.72-26.28-2.16Zm-3.24-41.76c4.08-8.64 6.12-17.04 6.12-25.2s-2.64-12.24-7.92-12.24c-2.16 0-3.96 1.56-5.4 4.68-1.44 3.12-2.16 6.12-2.16 9 0 9.6 3.12 17.52 9.36 23.76Zm121.309-78.48c12.48-14.16 28.44-21.24 47.88-21.24 27.84 0 45.48 11.28 52.92 33.84 2.16 6.72 3.24 14.16 3.24 22.32 0 18.24-6 36.24-18 54-11.76 17.76-26.04 29.76-42.84 36h4.32c17.52 0 35.28-6.48 53.28-19.44 11.52-8.16 20.52-16.56 27-25.2 6.72-8.88 11.76-13.32 15.12-13.32 3.36 0 5.04 3.84 5.04 11.52 0 13.44-5.76 27-17.28 40.68-17.28 19.68-39.36 31.2-66.24 34.56-19.44 2.16-33.24 2.52-41.4 1.08-8.16-1.44-14.4-3.24-18.72-5.4-9.36-4.8-14.04-12-14.04-21.6 0-5.28 1.08-10.08 3.24-14.4 18.96 0 33.36-7.2 43.2-21.6 9.84-14.4 14.76-32.4 14.76-54 0-5.28-1.92-9.96-5.76-14.04-3.84-4.32-9-6.48-15.48-6.48-6.24 0-13.08 2.76-20.52 8.28-7.44 5.52-13.44 12.48-18 20.88-4.32 8.16-8.28 16.32-11.88 24.48-3.6 7.92-6.48 18-8.64 30.24-3.84 22.08-8.28 49.92-13.32 83.52-4.8 33.84-7.8 51.96-9 54.36-1.2 2.64-3 5.04-5.4 7.2-2.4 2.16-4.92 3.24-7.56 3.24-4.8 0-8.76-1.44-11.88-4.32-8.64-7.44-13.68-13.2-15.12-17.28-1.44-3.84-2.16-8.88-2.16-15.12 0-23.52 3.96-56.52 11.88-99 7.92-42.48 21.6-86.64 41.04-132.48 2.88-6.72 7.92-10.08 15.12-10.08 7.44 0 14.52 6.48 21.24 19.44 1.92 3.36 3.24 6.48 3.96 9.36Zm173.09 151.92c-24 0-36-22.44-36-67.32 0-24.48 3-46.68 9-66.6 9.36-30.72 19.92-46.08 31.68-46.08 6.96 0 12.48 4.68 16.563 14.04 3.36 7.2 4.92 14.28 4.68 21.24 0 9.6-2.88 26.52-8.643 50.76-5.52 21.12-8.28 34.2-8.28 39.24 0 5.04 1.2 8.52 3.6 10.44 2.64 1.92 5.643 2.88 9.003 2.88 3.6 0 8.04-2.28 13.32-6.84 5.28-4.56 10.56-9.48 15.84-14.76 5.28-5.52 10.08-10.56 14.4-15.12 4.56-4.56 7.68-6.84 9.36-6.84 3.36 0 5.04 4.08 5.04 12.24 0 16.8-8.52 33.24-25.56 49.32-16.8 15.84-34.8 23.64-54.003 23.4Zm14.76-209.16c-6.48-9.6-9.72-19.92-9.72-30.96s1.68-20.16 5.04-27.36c3.6-7.44 6.96-12.84 10.083-16.2 3.12-3.6 6.72-5.4 10.8-5.4 6.72 0 12.84 5.04 18.36 15.12 5.52 9.84 8.28 18.12 8.28 24.84 0 12.48-4.44 22.32-13.32 29.52-8.64 6.96-18.48 10.44-29.523 10.44Zm189.723 123.12c4.32 0 6.48 3.72 6.48 11.16 0 7.2-1.92 15-5.76 23.4-3.6 8.4-9.24 16.56-16.92 24.48-7.44 7.68-17.04 14.28-28.8 19.8-11.76 5.52-25.68 8.28-41.76 8.28-15.84 0-29.76-4.68-41.76-14.04-12-9.6-18-23.28-18-41.04 0-18 2.76-34.2 8.28-48.6 5.76-14.64 13.2-27.24 22.32-37.8 9.36-10.56 19.92-18.72 31.68-24.48 11.76-6 22.92-9 33.48-9 18.48 0 27.72 7.32 27.72 21.96 0 8.4-1.8 15.12-5.4 20.16-3.36 5.04-6.84 7.56-10.44 7.56-4.8 0-9-1.68-12.6-5.04-3.6-3.36-7.56-5.04-11.88-5.04-4.32-.24-8.52 1.8-12.6 6.12-3.84 4.32-7.08 9.84-9.72 16.56-5.28 13.44-7.92 29.16-7.92 47.16.24 8.64 4.2 15.12 11.88 19.44 5.28 2.88 11.52 4.44 18.72 4.68 7.2 0 14.04-2.4 20.52-7.2 6.72-4.8 12.84-9.96 18.36-15.48 5.52-5.76 10.32-11.04 14.4-15.84 4.32-4.8 7.56-7.2 9.72-7.2Zm127.31 22.68c0-2.88 1.92-4.32 5.76-4.32s15.72 2.64 35.64 7.92c4.56-39.36 17.4-82.08 38.52-128.16 7.44-16.8 16.32-25.2 26.64-25.2 1.92 0 3.72 2.04 5.4 6.12 1.92 4.08 2.88 9.12 2.88 15.12 0 7.2-3.84 27-11.52 59.4-7.44 32.4-12.36 60.6-14.76 84.6 15.84 3.6 29.76 5.4 41.76 5.4 12.24 0 23.4-3.12 33.48-9.36 10.08-6.48 18.72-14.76 25.92-24.84 14.88-21.36 22.32-47.04 22.32-77.04-.24-55.44-22.32-83.16-66.24-83.16-15.6.24-43.2 7.2-82.8 20.88-7.68 2.64-14.4 3.96-20.16 3.96s-8.64-1.68-8.64-5.04c0-4.56 3.36-9.96 10.08-16.2 6.72-6.24 15.36-12.24 25.92-18 25.92-13.92 51.12-20.88 75.6-20.88 33.6 0 61.2 9 82.8 27 25.44 21.36 38.04 53.76 37.8 97.2 0 18.48-2.88 36.72-8.64 54.72-5.76 18-14.52 34.08-26.28 48.24-11.76 13.92-26.64 25.2-44.64 33.84-18 8.64-39.24 12.96-63.72 12.96-9.84 0-22.32-2.16-37.44-6.48-1.68 4.56-5.88 6.84-12.6 6.84-12.48 0-21-2.04-25.56-6.12-4.32-4.32-6.84-11.28-7.56-20.88-11.52-6.48-21.12-13.2-28.8-20.16-7.44-6.96-11.16-13.08-11.16-18.36Zm366.31 23.04c18.72 0 36.84-7.44 54.36-22.32 6.48-5.52 11.76-10.56 15.84-15.12 4.08-4.8 7.2-7.2 9.36-7.2 3.36 0 5.04 3.36 5.04 10.08 0 6.72-1.8 14.28-5.4 22.68-3.6 8.16-9.6 16.2-18 24.12-20.64 19.44-48.96 29.16-84.96 29.16-28.56 0-48-10.32-58.32-30.96-3.6-7.2-5.4-17.52-5.4-30.96 0-13.44 2.64-27.36 7.92-41.76 5.28-14.64 12.24-27.24 20.88-37.8 8.88-10.56 19.08-18.72 30.6-24.48 11.52-6 23.76-9 36.72-9 13.2 0 23.28 3.24 30.24 9.72 7.2 6.48 10.8 14.88 10.8 25.2 0 10.32-2.64 18.84-7.92 25.56-5.04 6.48-11.64 12-19.8 16.56-8.16 4.32-17.28 8.28-27.36 11.88-9.84 3.36-19.56 7.2-29.16 11.52v9c.24 8.64 3.84 14.76 10.8 18.36 6.96 3.6 14.88 5.52 23.76 5.76Zm-6.12-101.52c-12.48 0-21.12 14.52-25.92 43.56 5.04-3.36 9.72-6.36 14.04-9 4.56-2.64 8.52-5.16 11.88-7.56 7.2-5.28 10.92-11.28 11.16-18 0-6-3.72-9-11.16-9Zm154.79-33.48c16.08-.24 28.08 2.76 36 9 7.92 6 11.88 14.76 11.88 26.28 0 11.28-3.48 21-10.44 29.16-6.72 7.92-15 13.56-24.84 16.92 6.96 7.2 13.2 14.52 18.72 21.96 5.76 7.44 8.64 15.24 8.64 23.4 0 16.08-6.36 28.56-19.08 37.44-12.72 8.64-30.48 12.96-53.28 12.96-22.56 0-39.48-4.44-50.76-13.32-11.28-9.12-16.92-19.32-16.92-30.6 0-11.52 2.76-21.96 8.28-31.32 5.76-9.36 11.88-14.04 18.36-14.04 3.84 0 6.6 1.44 8.28 4.32 1.68 2.64 4.8 10.56 9.36 23.76 1.68 4.8 4.44 9.36 8.28 13.68 8.88 9.84 22.92 14.76 42.12 14.76-2.88-9.12-7.56-16.92-14.04-23.4a729.19 729.19 0 0 0-18.72-19.44c-6.24-6.24-11.76-12.84-16.56-19.8-4.8-7.2-7.2-15.6-7.2-25.2 0-17.28 6.48-31.32 19.44-42.12 12.24-9.6 26.4-14.4 42.48-14.4Zm-1.44 66.6c9.6-10.32 14.4-18.6 14.4-24.84 0-2.88-1.08-5.4-3.24-7.56-1.92-2.4-4.8-3.6-8.64-3.6-3.84 0-7.56.48-11.16 1.44-3.36.96-6.12 1.68-8.28 2.16 0 9.12 5.64 19.92 16.92 32.4Zm107.05 108.72c-24 0-36-22.44-36-67.32 0-24.48 3-46.68 9-66.6 9.36-30.72 19.92-46.08 31.68-46.08 6.96 0 12.48 4.68 16.56 14.04 3.36 7.2 4.92 14.28 4.68 21.24 0 9.6-2.88 26.52-8.64 50.76-5.52 21.12-8.28 34.2-8.28 39.24 0 5.04 1.2 8.52 3.6 10.44 2.64 1.92 5.64 2.88 9 2.88 3.6 0 8.04-2.28 13.32-6.84 5.28-4.56 10.56-9.48 15.84-14.76 5.28-5.52 10.08-10.56 14.4-15.12 4.56-4.56 7.68-6.84 9.36-6.84 3.36 0 5.04 4.08 5.04 12.24 0 16.8-8.52 33.24-25.56 49.32-16.8 15.84-34.8 23.64-54 23.4Zm14.76-209.16c-6.48-9.6-9.72-19.92-9.72-30.96s1.68-20.16 5.04-27.36c3.6-7.44 6.96-12.84 10.08-16.2 3.12-3.6 6.72-5.4 10.8-5.4 6.72 0 12.84 5.04 18.36 15.12 5.52 9.84 8.28 18.12 8.28 24.84 0 12.48-4.44 22.32-13.32 29.52-8.64 6.96-18.48 10.44-29.52 10.44Zm184.69 44.28c3.36-10.56 8.76-15.84 16.2-15.84 6.72.24 13.08 5.04 19.08 14.4 6 9.12 9 16.2 9 21.24-.48 9.84-3.48 25.56-9 47.16-5.52 21.36-13.32 49.2-23.4 83.52 15.84-12.24 31.44-28.2 46.8-47.88 5.28-6.72 9.72-12.12 13.32-16.2 3.84-4.32 6.96-6.48 9.36-6.48 3.36 0 5.04 3.84 5.04 11.52 0 15.12-8.52 32.76-25.56 52.92-16.8 20.16-37.44 35.88-61.92 47.16-2.88 9.6-6 18.72-9.36 27.36-3.36 8.64-7.68 16.2-12.96 22.68-11.52 13.92-29.04 20.88-52.56 20.88-15.84 0-29.4-4.56-40.68-13.68-11.04-9.12-16.56-20.52-16.56-34.2 0-7.44 2.4-13.32 7.2-17.64 5.04-4.32 11.88-7.8 20.52-10.44 8.64-2.64 18.72-4.92 30.24-6.84 11.76-1.92 24.24-4.32 37.44-7.2 1.2-4.08 2.16-8.04 2.88-11.88l2.88-12.24c-13.2 12.24-29.4 18.36-48.6 18.36-18.96 0-33.6-5.28-43.92-15.84-10.32-10.56-15.36-23.4-15.12-38.52 0-40.8 13.56-72.96 40.68-96.48 18.72-16.08 38.16-24.12 58.32-24.12 6.96 0 14.4.84 22.32 2.52 8.16 1.68 14.28 3.6 18.36 5.76Zm-86.76 100.44c0 18.48 6.84 27.72 20.52 27.72 7.68 0 15.48-2.88 23.39-8.64 7.93-5.76 14.29-15.12 19.09-28.08 3.6-16.8 7.32-32.28 11.16-46.44 4.08-14.16 6.84-24 8.28-29.52-20.16 2.64-39 11.64-56.52 27-17.28 15.36-25.92 34.68-25.92 57.96Zm37.8 105.12c-8.64 1.68-16.2 3-22.68 3.96s-11.88 1.8-16.2 2.52c-4.08.72-7.2 1.56-9.36 2.52-1.92.96-2.88 2.52-2.88 4.68 0 4.32 2.64 8.04 7.92 11.16 5.52 3.12 10.92 4.56 16.2 4.32 9.12 0 18.12-9.72 27-29.16Zm165.32-221.4c8.64 0 16.8 8.28 24.48 24.84 11.28-11.76 25.2-17.64 41.76-17.64 16.8 0 29.4 3.72 37.8 11.16 8.4 7.2 12.6 17.52 12.6 30.96 0 13.2-1.8 26.64-5.4 40.32-3.36 13.68-5.88 23.52-7.56 29.52-1.44 5.76-2.16 10.56-2.16 14.4s1.32 5.76 3.96 5.76c3.6 0 8.04-2.28 13.32-6.84 5.28-4.56 10.56-9.48 15.84-14.76 5.28-5.52 10.08-10.56 14.4-15.12 4.56-4.56 7.68-6.84 9.36-6.84 3.36 0 5.04 4.08 5.04 12.24 0 16.8-8.28 33-24.84 48.6-27.84 16.32-45.6 24.48-53.28 24.48-.72 0-1.2-.12-1.44-.36-19.2 0-28.8-15.36-28.8-46.08 0-13.2 1.2-25.32 3.6-36.36 2.64-11.04 4.56-19.08 5.76-24.12 1.2-5.04 1.8-10.2 1.8-15.48 0-8.64-5.04-12.96-15.12-12.96-9.84 0-19.32 7.44-28.44 22.32-8.88 14.64-14.88 29.88-18 45.72v2.52c0 8.16 1.2 16.56 3.6 25.2 2.64 8.64 3.96 14.64 3.96 18 0 8.16-10.2 16.2-30.6 24.12-3.12 1.2-5.88 1.8-8.28 1.8-6 0-10.2-3.12-12.6-9.36-2.16-6.24-3.24-15.96-3.24-29.16 0-34.08 1.32-58.68 3.96-73.8 3.6-22.56 11.76-43.56 24.48-63 4.32-6.72 9-10.08 14.04-10.08Z" fill="#fafafa"/></svg>
