<svg width="24" height="24" viewBox="0 0 24 24" fill="none" xmlns="http://www.w3.org/2000/svg">
<path d="M3 18H10.5V19.5H3V18ZM3 13.5H10.5V15H3V13.5ZM19.5 10.5H4.5C4.10218 10.5 3.72064 10.342 3.43934 10.0607C3.15804 9.77936 3 9.39782 3 9V4.5C3 4.10218 3.15804 3.72064 3.43934 3.43934C3.72064 3.15804 4.10218 3 4.5 3H19.5C19.8978 3 20.2794 3.15804 20.5607 3.43934C20.842 3.72064 21 4.10218 21 4.5V9C21 9.39782 20.842 9.77936 20.5607 10.0607C20.2794 10.342 19.8978 10.5 19.5 10.5ZM4.5 4.5V9H19.5V4.5H4.5ZM19.5 21H15C14.6022 21 14.2206 20.842 13.9393 20.5607C13.658 20.2794 13.5 19.8978 13.5 19.5V15C13.5 14.6022 13.658 14.2206 13.9393 13.9393C14.2206 13.658 14.6022 13.5 15 13.5H19.5C19.8978 13.5 20.2794 13.658 20.5607 13.9393C20.842 14.2206 21 14.6022 21 15V19.5C21 19.8978 20.842 20.2794 20.5607 20.5607C20.2794 20.842 19.8978 21 19.5 21ZM15 15V19.5H19.5V15H15Z" fill="white"/>
</svg>
